<?xml version="1.0" encoding="UTF-8" standalone="no"?>
<!-- Created with Inkscape (http://www.inkscape.org/) -->

<svg
   xmlns:dc="http://purl.org/dc/elements/1.1/"
   xmlns:cc="http://creativecommons.org/ns#"
   xmlns:rdf="http://www.w3.org/1999/02/22-rdf-syntax-ns#"
   xmlns:svg="http://www.w3.org/2000/svg"
   xmlns="http://www.w3.org/2000/svg"
   xmlns:sodipodi="http://sodipodi.sourceforge.net/DTD/sodipodi-0.dtd"
   xmlns:inkscape="http://www.inkscape.org/namespaces/inkscape"
   width="4in"
   height="4in"
   viewBox="0 0 360 360"
   id="svg5387"
   version="1.1"
   inkscape:version="0.91 r13725"
   sodipodi:docname="new bemp logo faded outline.svg">
  <defs
     id="defs5389" />
  <sodipodi:namedview
     id="base"
     pagecolor="#ffffff"
     bordercolor="#666666"
     borderopacity="1.0"
     inkscape:pageopacity="0.0"
     inkscape:pageshadow="2"
     inkscape:zoom="1.4142136"
     inkscape:cx="189.07277"
     inkscape:cy="206.73258"
     inkscape:document-units="in"
     inkscape:current-layer="layer1"
     showgrid="false"
     units="in"
     showguides="true"
     inkscape:guide-bbox="true"
     inkscape:window-width="1404"
     inkscape:window-height="748"
     inkscape:window-x="20"
     inkscape:window-y="4"
     inkscape:window-maximized="0">
    <sodipodi:guide
       position="9.0000001,-37.000001"
       orientation="1,0"
       id="guide5956" />
  </sodipodi:namedview>
  <metadata
     id="metadata5392">
    <rdf:RDF>
      <cc:Work
         rdf:about="">
        <dc:format>image/svg+xml</dc:format>
        <dc:type
           rdf:resource="http://purl.org/dc/dcmitype/StillImage" />
        <dc:title />
      </cc:Work>
    </rdf:RDF>
  </metadata>
  <g
     inkscape:label="Layer 1"
     inkscape:groupmode="layer"
     id="layer1"
     transform="translate(0,-692.3622)">
    <path
       style="fill:#441500;fill-opacity:1"
       d="m 132.03878,740.43592 c -4.0809,6.5685 -3.4824,15.702 -4.23165,22.4085 0.1875,-4.806 -5.73525,-15.7005 -7.6212,-14.0985 6.1341,4.4835 3.1959,20.58 7.5705,20.919 3.83595,19.80626 -6.51901,59.85106 4.0848,1.6155 1.2135,-6.219 7.6533,-9.408 7.9146,-14.961 3.16425,6.792 5.91405,2.1165 3.51135,-2.9175 2.8263,5.298 6.81615,-3.426 5.72745,5.406 4.2579,0.3 5.8416,-11.2755 9.89565,-14.928 -5.13705,1.8645 -7.6215,11.7015 -8.45655,0.855 -1.54545,-7.7655 -5.63445,3.6705 -10.53825,1.41 -2.0451,5.001 -3.5832,11.466 -6.5763,9.8955 -1.2165,10.5045 -4.983,-5.3055 -1.63395,-8.943 0.2175,-2.112 1.107,-4.614 0.357,-6.6525 z m 32.1159,4.371 c -4.75935,2.0685 -9.50925,20.037 -3.5367,8.064 0.8205,-2.3985 4.48185,-5.976 3.5367,-8.064 z m 8.3163,8.238 c -5.637,-0.24 -13.68555,17.6685 -5.53725,7.203 1.75275,-2.472 3.8133,-4.7175 5.53725,-7.203 z m 8.2041,0.69 c -7.21335,5.361 -11.2521,12.93 -13.9548,19.7745 -3.9855,7.0065 -3.483,17.2905 -10.725,21.3075 7.7289,0.69 12.2862,-12.3645 18.4365,-12.6315 0.135,5.88 8.5878,-6.9105 11.76255,-9.2505 4.8648,-3.3915 7.1871,-11.2095 0.06,-4.257 -4.9197,6.339 -12.615,12.6165 -19.35975,14.532 -1.5375,-8.6505 11.0526,-15.3495 16.0269,-21.9495 -0.007,-5.1255 -11.04195,6.687 -4.5474,-1.425 1.191,-1.617 3.19395,-3.9285 2.30655,-6.0945 z m -125.326355,2.5695 c 1.53945,9.129 6.61515,18.1905 14.10555,23.757 -5.4192,-7.4835 -10.0365,-15.4845 -14.10555,-23.757 z m 40.499997,0.39 c 1.6491,2.046 3.700062,15.7065 -0.897,10.7895 -10.4646,-5.2485 1.1955,6.507 4.613862,8.241 2.270996,3.7575 1.774046,13.35 -1.54455,4.188 -1.858362,-4.1235 -8.219562,-10.1235 -7.854162,-4.011 -3.7785,-1.455 -15.736047,-5.3745 -5.97225,0.21 8.721,1.797 7.74165,21.7875 14.716212,19.161 -2.508012,-2.628 -8.805762,-19.959 -2.736462,-12.378 4.287908,6.294 5.547458,24.384 9.759758,24.8835 -3.0387,-10.7025 1.0755,-19.2705 -3.43215,-30.2025 4.5243,-4.3755 0.9225,8.7645 4.86915,8.847 -3.9405,6.0975 7.77615,17.7825 4.5354,6.564 -0.255,-4.2255 -1.98705,-14.31 0.264,-12.3645 0.105,-0.21 0.2475,-0.39 0.465,-0.54 0.09,-0.165 0.225,-0.33 0.4365,-0.555 0.2475,-0.15 0.4905,-0.21 0.7395,-0.33 0.03,0 0.075,-0.15 0.105,-0.15 -0.1995,-1.455 0.3585,-2.58 2.367,-2.3565 0.1965,-5.676 1.4925,-2.3895 2.92155,-1.11 1.047,-5.346 -1.51185,-18.7575 1.79235,-5.8545 4.6146,10.5315 -0.03,-17.274 -2.8746,-9.15 -1.87335,-3.0165 -2.2332,8.163 -4.6713,4.29 0.8985,6.1245 -7.37085,20.025 -5.7558,7.569 1.0485,-4.242 6.21705,-18.4755 -1.59,-10.257 -3.83085,-0.825 -6.832496,-3.795 -10.252508,-5.5335 z m 17.598308,8.22 c -0.12,-0.84 -0.42,-1.5405 -0.9405,-1.998 0.3465,0.9 0.657,1.5465 0.9405,1.998 z m -46.525505,-6.339 c -2.6088,8.8395 3.9516,19.392 7.2324,27.996 1.2345,5.229 -8.59395,-7.0575 -11.16915,-9.672 -3.3984,-4.335 -13.13175,-14.514 -4.95495,-4.104 7.50375,10.9455 17.67375,19.4535 27.536547,28.143 7.6101,7.413 -4.2252,-6.333 -7.546647,-8.547 -3.6792,-5.7345 -4.8489,-14.13 -8.66925,-21.6465 -2.1357,-3.6375 -0.2385,-9.1065 -2.42895,-12.1695 z m 32.805009,3.9135 c 11.377646,1.9785 3.160646,14.007 0.045,1.7955 l -0.135,-1.7715 0.09,0 z m 67.333346,1.335 c -6.66195,5.166 -9.1134,15.495 -15.6045,19.926 7.84725,-3.393 14.47575,-11.385 15.6045,-19.926 z m -10.6257,0.495 c -6.5769,1.7805 -5.30895,22.8315 -0.24,8.76 4.1163,-6.561 -5.4249,-1.569 0.3225,-8.061 l 0.09,-0.555 -0.1665,-0.15 z m 35.625,8.907 c -6.28935,6.0135 -18.9375,13.0155 -13.0233,23.145 2.76285,-2.6505 11.4222,-13.5675 10.92795,-14.1345 -4.7211,1.365 -10.96335,9.6045 -5.0115,0.795 1.179,-2.9775 9.73425,-6.987 7.10685,-9.8145 z m -114.184205,2.2635 c 3.857097,4.125 14.532297,14.9745 5.872347,4.44 -1.7427,-1.734 -3.65205,-3.3495 -5.872347,-4.44 z m -2.04375,0.84 c -0.606,5.745 -0.171,10.449 5.813997,12.843 7.3563,6.0135 13.00005,13.7235 19.006958,20.97 -2.347646,-11.148 -13.163708,-18.1965 -20.548358,-26.22 -2.422047,-2.0145 -1.8039,-5.691 -4.272597,-7.593 z m -28.2807,4.0605 c 0.378,1.065 0.819,2.0895 1.308,3.0795 -0.2445,-1.035 -0.681,-2.142 -1.308,-3.0795 z m 1.308,3.0795 c 0.798,3.405 -0.453,6.2775 -3.88515,1.395 -8.3226,-9.786 6.9168,10.1235 5.6139,8.952 -10.8984,-5.751 14.6946,13.1835 0.627,4.944 -3.7038,-2.7675 -16.8414,-9.342 -5.8566,-2.1075 10.83675,8.2275 -14.5977,-5.5365 -3.76515,2.349 9.11895,5.529 18.82395,10.1565 28.03665,15.4455 2.0655,-5.475 12.963147,0.72 13.522647,-5.751 -8.949147,-6.9465 -17.053047,-15.006 -24.414897,-23.4765 -1.401,3.714 13.9569,17.5185 2.24535,8.055 -1.8063,0.36 17.664447,18.1605 5.3259,8.775 -6.63045,-5.337 -13.63395,-10.8765 -17.44965,-18.5835 z m 149.403155,-1.8345 c -6.2667,3.144 -11.74125,9.4935 -12.2685,16.644 4.29255,-5.3955 7.308,-11.7705 12.2685,-16.644 z m 4.263,3.9825 c -6.7767,0.21 -16.16025,17.709 -5.62215,7.338 2.0538,-2.1885 5.4729,-4.716 6.26865,-7.3035 l -0.6465,0 z m -136.146155,2.136 c 4.8642,9.384 13.282797,16.524 22.615797,21.249 -7.7433,-6.8325 -16.620297,-12.66 -22.615797,-21.249 z m 139.641005,2.754 c -5.2524,-0.15 -15.5517,11.547 -6.12675,5.5125 2.3232,-1.698 5.29335,-3.5865 7.10235,-5.3325 -0.2985,-0.15 -0.6255,-0.18 -0.975,-0.18 z m -42.94905,2.9445 -0.045,0 c -0.03,0.15 -0.045,0.15 -0.015,0.15 0.03,0 0.045,-0.15 0.06,-0.15 z m 45.82965,1.095 c -4.73655,0 -15.10755,8.8575 -4.8393,3.927 1.2315,-1.02 5.8176,-2.952 5.27895,-3.894 -0.135,-0.0125 -0.2865,0 -0.4395,0 z m -173.117105,2.532 c -5.6115,5.499 19.94265,12.561 3.22395,11.9265 -5.2449,-1.98 -14.4507,5.3955 -4.22715,3.0945 11.98965,-0.54 23.98275,2.115 34.54935,7.791 5.74155,-4.4445 -11.2173,-8.172 -14.4669,-11.553 -6.41805,-3.6735 -13.02135,-7.023 -19.07925,-11.259 z m 155.541305,1.38 c -4.8333,0.36 -9.36525,9.3165 -1.51755,3.7905 1.7505,-0.885 7.59465,-3.213 1.51755,-3.7905 z m 20.06145,0.435 c -3.54495,1.005 -17.019,11.166 -5.829,6.099 1.0545,-1.7385 9.35385,-3.882 5.829,-6.099 z m -14.59755,3.9 c -5.5092,3.996 -13.06935,10.806 -15.88815,16.3185 6.41175,-0.84 12.14055,-11.4105 18.1686,-15.8025 -0.555,-0.21 -1.6836,-0.51 -2.28045,-0.51 z m -64.25805,3.675 c -4.3152,7.9785 3.08985,20.16 -1.2675,29.3445 -7.58085,5.5125 -4.3743,12.2625 -9.2328,19.0395 -4.15095,2.0265 3.0549,2.82 -1.7625,7.8525 -3.7734,9.8535 -5.89875,22.1025 -16.0269,27.5355 -2.55585,4.806 7.7886,-2.502 1.4265,3.162 -5.2482,3.2895 -12.762758,1.455 -18.637208,0.885 -13.063947,1.215 19.783208,1.9365 8.4699,7.659 -3.39495,6.159 -13.06665,17.016 0.903,16.473 9.646208,-5.4675 23.878058,-1.395 30.549908,-13.362 8.3547,-9.9855 21.18825,-0.645 31.0485,1.617 7.749,1.245 17.1933,6.324 6.58155,10.8255 3.7809,-0.165 5.86635,-0.285 2.58645,3.0375 8.84775,-2.163 -0.4845,1.41 2.39985,3.0915 7.4442,-7.0425 21.5697,-0.585 27.1983,-9.1545 1.93395,-4.6785 20.1198,-7.7475 7.1031,-8.127 -3.45975,2.2065 -14.25,11.9055 -14.45715,9.264 2.14125,-5.8365 14.23455,-10.0605 13.84965,-13.554 -8.7543,-0.42 4.3443,-8.661 6.1866,-12.1185 4.7142,-2.6865 2.78115,-15.237 0.741,-5.646 -4.12065,11.154 -17.7156,13.038 -22.7682,23.451 -3.1074,4.1175 -8.94375,13.437 -1.173,5.2935 1.0905,-3.537 9.7563,-14.1465 10.09275,-8.118 -5.66865,7.6725 -13.78635,18.1155 -24.0663,11.4225 0.8685,-8.616 0.105,-21.771 10.86525,-23.349 2.1162,-5.361 -16.1544,1.47 -12.05505,9.3435 0.6825,9.9255 -9.31005,-0.375 -13.98255,-1.7805 -6.74505,-3.4095 9.80955,-5.754 9.2643,-11.505 11.1786,-0.615 9.0042,-15.3045 16.8585,-16.9305 -0.5145,4.353 -9.4713,13.0545 -0.4725,6.699 4.86855,-3.5595 4.72725,-19.3575 -2.229,-8.8335 -6.1473,6.2535 -6.97305,15.7185 -17.0772,18.1035 -2.7513,3.528 -19.14315,2.772 -14.43255,6.129 5.23815,-1.887 13.0887,-0.99 3.6882,2.4075 -5.3139,0.495 -13.8378,0.39 -16.09125,-0.825 -4.161,-5.235 -18.8961,16.4835 -13.0344,2.4855 2.0508,-6.0945 12.1206,-6.1815 14.52435,-9.531 -4.12065,8.6805 6.1038,-6.2385 9.51045,-5.9415 11.30265,-3.1035 -10.6602,-4.2015 -10.41585,2.4525 -1.4145,4.788 -14.3607,11.8065 -5.9232,2.8575 6.8748,-7.6065 13.96215,-15.105 15.3015,-25.548 -6.6432,2.4285 -5.6232,14.514 -13.1979,18.174 -5.72145,9.1185 -12.7371,18.5775 -15.60975,29.3505 -4.0092,3.0765 -12.95055,1.245 -4.51305,-2.646 4.0338,-2.376 8.6718,-13.743 1.51605,-5.169 -3.59955,5.4255 -16.973258,14.0325 -19.215908,6.2865 8.345408,-6.66 9.880358,-11.877 17.107958,-19.0395 6.0243,-10.278 1.362,3.0915 -1.095,5.9895 2.66775,4.8105 -12.940796,11.3175 -9.95775,14.2755 9.25665,-6.3735 18.62475,-12.879 21.72315,-24.4845 2.12685,-5.358 4.31565,-10.545 -1.5429,-5.784 -1.6155,-4.4235 10.5885,-16.044 5.4372,-15.2205 -6.0267,3.5715 -6.6933,21.3735 -10.58325,18.747 3.65175,-13.314 7.94955,-26.5305 13.6317,-39.1185 -1.5915,-7.9875 10.4424,-11.766 7.1547,-21.09 0.981,-6.633 -2.30145,-11.5755 -4.8975,-16.362 z m 79.1826,0.6 c -4.28565,3.3585 -15.3573,7.2105 -3.98535,5.3595 1.9908,-1.02 3.77775,-3.075 3.98535,-5.3595 z m 3.1365,4.4835 c -3.9921,1.833 -17.29395,8.1705 -6.08505,7.824 1.77975,3.0225 11.30145,13.8825 2.5767,9.5625 -0.7185,4.9635 14.10945,15.414 9.48375,5.832 3.1545,-8.3565 -20.0085,-16.353 -5.3565,-22.0245 l -0.09,-0.645 -0.5355,-0.555 z m -180.331505,2.586 c -5.50365,0.15 -5.53125,6.291 1.57125,3.495 6.09345,0 14.9643,1.5435 19.3137,3.576 -5.5248,0.765 -18.2946,-4.536 -19.4943,1.335 9.51525,-1.08 20.5878,7.0425 28.69125,1.6605 0.5655,-9.24 -14.1153,-7.2285 -21.45885,-9.2355 -2.2401,-0.285 -4.4826,-0.585 -6.7413,-0.645 -0.684,-0.15 -1.3125,-0.195 -1.88175,-0.18 z m 65.813705,2.823 c -2.121296,4.758 13.21545,7.935 12.16335,16.4355 -0.396,4.149 1.0545,18.2205 2.5932,7.254 1.2315,-9.7365 -4.32765,-21.864 -14.75655,-23.6895 z m -15.344858,1.947 c -2.52015,2.5455 11.48085,5.5485 2.4693,0.9 l -2.2185,-0.885 -0.2505,0 z m -1.9818,1.797 c 0.0037,0.005 0.0125,0 0.015,0 4.5e-4,0 0.0012,0 0.0012,-0.001 -0.0075,-0.005 -0.0125,0 -0.015,0 z m 0.9375,1.275 c -0.0025,0.003 -0.0075,0 -0.015,0 0.0012,0.003 0.0025,0.003 0.0037,0.008 0.0037,-0.005 0.0075,0 0.0125,0 l 0.0025,0 z m 0.045,0 c -0.0075,0.008 -0.0125,0 -0.015,0 -0.0075,0.008 -0.015,0.0125 -0.03,0 1.5264,2.709 0.612,4.869 -1.60635,5.019 -0.0012,0 -0.0025,0.15 -6e-4,0.18 6e-4,0.15 0.03,0.615 0,0.615 l -0.03,0.001 c 0.03,0.15 0.12,0.285 0.09,0.3 -0.0037,0.002 -0.0075,0.001 -0.0125,0.002 0.03,0 0.06,0.15 0.09,0.15 0.15,0 0.2385,0 0.294,0.24 0.03,0.15 0.03,0.225 0.045,0.345 0.12,0.15 0.0125,-0.15 0.2925,0.42 0.0037,0.008 -0.0125,-0.002 -0.015,-0.005 0.09,0.21 0.09,0.195 0.153,0.465 0.075,0.15 0.15,0.165 0.2025,0.24 0.06,0 0.12,0.15 0.1725,0.15 0.06,0 0.135,0.15 0.165,0.18 0.0038,0 -0.0025,0 -0.015,0.001 0.105,0.15 0.246,0.18 0.3225,0.225 0.0125,0.001 0.03,0.001 0.045,0.005 l 0.192,0 c 0.648,0.465 0.63,0.39 0.6795,0.78 0.105,0.15 0.1695,0.15 0.246,0.33 0.0075,0.005 0.0125,0.005 0.015,0 0.3765,0.3 0.195,0.345 0.4875,0.6 -0.1605,0 -0.2865,0 -0.3405,0.15 0.249,0.18 0.4065,0.42 0.474,0.705 0.045,0.005 0.105,0 0.1545,0 0.045,0 0.105,0.15 0.1575,0.15 l 0.0125,0 -0.03,0 c 0.0125,-0.003 0.015,0.002 0.03,0.005 0.015,0 0.03,-0.15 0.045,-0.15 -0.0075,0 -3e-4,0.001 -0.0075,0 -0.0025,-0.005 -0.0025,-0.003 -0.0037,0 0.0075,0.005 0.0125,0 0.015,0 -0.0025,0.001 -0.0037,0 -0.0075,0 0.075,0.24 0.09,0.27 0.09,0.255 0.12,0.15 0.153,0.15 0.354,0.21 0.225,0.18 0.2565,0.18 0.348,0.375 0.0075,0.001 0.015,0.001 0.03,0 0.2445,0.15 0.4155,0.165 0.6135,0.375 0.075,0.15 0.12,0.195 0.174,0.3 0.0037,0.005 0.0075,0 0.015,0 0.15,0.15 0.2955,0.27 0.4035,0.465 0.12,0.15 0.216,0.3 0.3195,0.435 0.33,0 0.483,0.24 0.7155,0.63 0.015,0 0.03,0.15 0.03,0.15 0.045,0 0.075,0 0.105,0.15 l -0.105,0 c -0.0012,0.001 -0.0012,0.005 -0.0025,0 0.0025,0 0.0037,0.001 0.0037,0.001 0.708,0.195 0.015,-0.195 0.6375,0.225 0.015,0.005 0.0025,0 0.03,0 0.015,0 0.09,0.15 0.06,0 -0.06,0 -0.045,0 -0.09,-0.15 -0.1725,0 0.06,0 0.2595,0.195 0.075,-0.15 0.1785,-0.15 0.1605,0.15 0.045,0.005 0.09,0.007 0.135,0 0.222,0.15 0.594,0.285 0.672,0.57 0.06,0 0.105,0.15 0.135,0.15 0.2145,0.315 0.2445,0.405 0.276,0.615 l 0.03,0 c 0.0025,0.005 0.0012,0 0.0025,0 0.18,0.15 0.36,0.18 0.5445,0.225 0.486,0.195 0.6885,0.495 0.6855,0.765 0.06,0 0.075,0.15 0.075,0.21 0.3285,0.15 0.4875,0.15 0.5535,0.3 0.075,0 0.075,0 0.015,0.15 0.015,0.15 0.03,0.21 0.03,0.345 3.23955,3.498 7.669208,11.9715 9.214808,15.201 2.84385,-6.879 -7.875008,-13.6905 -5.614058,-18.114 3.957308,1.9815 8.434508,17.8605 6.383708,5.343 -4.368896,-8.583 -13.687658,-13.1565 -19.563758,-20.598 z m 9.5412,17.832 c -0.0037,0 -0.0125,0 -0.015,-0.15 -0.045,0 -0.12,0.005 -0.234,0 -0.015,0.003 -0.03,0.005 -0.06,0 0.045,0 0.09,0.15 0.15,0.15 0.06,0 0.135,-0.15 0.165,-0.15 z m -3.27855,-3.06 -0.075,0 c 0.0075,0.002 0.015,0.005 0.015,0 0.045,0.001 0.09,0.002 0.135,0.002 -0.03,0 -0.045,0 -0.075,-0.15 z m -4.02405,-3.5925 c -0.0025,0.007 -0.0037,0 -0.0075,0 l 0.075,0 0.045,0 c -0.03,0 -0.06,-0.15 -0.105,-0.15 z m 5.9406,-8.805 c 4.8975,3.837 11.150558,16.3485 13.651058,16.254 -2.22255,-6.843 -7.547396,-12.621 -13.651058,-16.254 z m -12.78075,2.613 c 0.0012,0.005 4.5e-4,0 7.5e-4,0 6e-4,0.001 0.0012,0.005 0.0025,0.005 l -0.0025,0 z m -19.458447,0.33 c -9.41025,4.5015 -14.2359,17.8215 -10.9944,27.675 3.38115,12.024 16.8201,13.9665 27.13635,16.9485 2.1087,-3.873 -15.68475,-3.3675 -18.6,-9.6525 9.1182,-1.155 17.48295,3.3045 23.871447,9.4485 6.1461,5.8605 0.5115,-6.444 6.7449,-0.615 1.383,-0.465 -4.05375,-7.5855 1.449,-2.388 -2.177513,-2.6666 -7.399175,-0.54192 -9.915,-2.892 -4.875447,-10.143 -15.397197,-3.528 -24.414897,-6.0975 -5.56485,-6.0255 11.502,2.283 4.89225,-5.472 -4.47075,-4.545 -3.3732,-11.7555 -9.02985,-5.7075 -3.1779,-8.607 8.142,-15.231 9.83595,-20.7195 z m 21.939597,0.405 c 7.5e-4,0.001 7.5e-4,0.003 0.0012,0.005 3e-4,0.001 1.5e-4,0.001 6e-4,0.001 0.03,0 0.2355,-0.001 -0.0025,-0.005 z m 0.4245,0.15 c 3e-4,0.005 0.0037,0.005 0.0037,0 0.0025,0 0.0012,0.001 0.0025,0 -0.0025,-0.005 -0.0075,0 -0.0075,0 z m -0.2055,0.15 c 0.09,0 0.1785,0.15 0.2475,0.18 -0.03,-0.15 -0.075,-0.18 -0.135,-0.18 -0.03,0.005 -0.075,0 -0.105,0 z m 0.6855,0.825 c -0.0025,0.005 -0.0075,0 -0.0075,0 l 0.06,0 c -0.0075,0 -0.015,0 -0.045,-0.15 -0.0025,-0.001 -0.0037,-0.002 -0.0075,-0.005 z m 1.82505,2.331 0.105,0 -0.045,0 z m 104.659508,0.795 c -3.7704,2.334 -2.5746,18.4725 -7.73325,10.929 0.612,-6.57 0.405,-8.646 -4.3323,-1.839 -2.36505,3.1695 -13.4766,12.789 -10.5399,13.0275 4.94055,-1.155 13.3029,-15.1755 13.4241,-11.382 -3.22995,2.562 -7.8561,14.205 -1.74585,6.3615 3.2631,-5.6385 12.83025,-1.005 3.24405,2.28 -3.8019,1.782 -14.92605,10.833 -4.7781,5.514 4.6794,-2.6505 12.3045,-10.716 11.78355,0.21 -0.8205,5.2155 10.11915,19.1445 5.16315,6.6405 -1.128,-7.0455 -7.76595,-18.5475 -0.174,-22.0845 -7.89375,-0.33 -2.421,-6.1785 -4.3116,-9.651 z m -105.403058,1.32 c 0.03,0 0.06,0.15 0.09,0.15 0.0075,0 0.015,0 0.03,-0.15 z m 2.9769,0.57 c -0.03,-0.003 -0.045,-0.001 -0.03,0.002 l 0.105,0 c -0.0037,-0.002 -0.0075,0 -0.0125,0 l -0.06,0 z m 0.8415,0.765 c -0.0025,0.001 3e-4,0 -0.0025,0.001 l 0.045,0 c 0.0025,0 0.0038,-0.001 0.0075,-0.001 -0.0037,-0.003 -0.0025,-0.001 -0.0075,0 -0.015,-0.005 -0.03,0 -0.045,0 z m 1.5012,1.485 c -0.015,0.007 -0.045,0 -0.075,0 0.045,0 0.075,0 0.12,0.15 l 0.06,0 c -0.015,-0.15 -0.045,-0.18 -0.105,-0.18 z m -2.7552,0.195 c 0.03,0 0.06,0.15 0.09,0.15 l -0.0125,0 -0.045,0 c -0.0012,-0.003 -6e-4,-0.003 -0.0025,-0.005 -0.0125,-0.005 -0.03,-0.005 -0.03,0 z m 0.09,0.15 c 3e-4,0 0.0012,0 0.0025,0.001 l -0.015,0 0.015,0 z m 0.0025,0.001 0.0125,0 0.015,0 0.03,0 c -0.015,0 -0.045,0 -0.06,-0.15 z m 3.1761,0.21 c -0.015,0 -0.06,0 -0.12,0.15 0.03,0 0.06,0.15 0.09,0.15 0.015,0 0.045,-0.15 0.045,-0.15 0.0075,0 0.0025,0 -0.0075,-0.15 z m -12.433497,0.24 c -0.075,0.002 -0.1575,0 -0.24,0 -10.52055,3.336 4.624947,11.757 2.422047,2.1135 -0.276,-0.96 -1.0155,-2.1915 -2.182497,-2.142 z m 14.426547,1.767 -0.0037,0 c 7.5e-4,0 0.001,0.001 0.0025,0.001 l 0.0037,0 z m 0.4245,6.4815 c -2.32275,2.6625 8.386658,17.0925 -0.7035,7.191 -5.49315,-7.383 -3.38265,2.037 -4.9431,5.031 1.6512,5.2905 17.042708,15.5295 3.80175,15.7185 -3.7155,1.155 -18.045297,1.995 -6.2157,2.9595 7.88625,0.855 16.982858,1.02 25.273208,-5.094 6.04335,-4.1535 -5.4378,-0.795 2.25735,-3.9465 3.3675,-1.6905 10.6341,-11.763 2.84685,-5.2005 -2.4999,2.2335 -13.623,11.9055 -13.02705,6.7935 5.6946,-3.159 3.153,-7.956 -1.539146,-2.6325 -4.305462,-1.095 3.339896,-6.618 -1.2465,-11.541 -1.732362,-3.1815 -3.300312,-7.4745 -6.503862,-9.279 z m 120.140108,0.345 c -1.9932,4.896 9.9591,16.569 -0.345,8.7975 -1.281,6.3465 4.1913,14.262 9.0888,20.055 3.2175,6.0165 24.84975,6.975 9.606,2.0895 4.9992,-4.7385 -12.1587,-7.152 -14.9103,-12.7455 -2.7729,-4.821 17.95425,7.9335 7.23525,-1.6725 -5.7294,-3.336 -5.27475,-3.726 -0.09,-3.2325 -0.7365,-4.6725 -8.24055,-8.433 -10.58535,-13.2915 z m -8.7327,2.433 c 2.6076,13.761 8.6865,27.708 20.66235,35.778 -4.13415,-1.485 -12.0378,-2.628 -4.8294,2.4825 8.54565,4.308 17.7876,3.246 25.7412,7.23 -8.35785,4.7445 -16.70985,-5.3715 -24.8097,-1.9875 12.8991,8.3805 -13.3842,-5.58 -4.8795,2.973 7.96695,8.103 20.36235,7.17 28.3188,15.7845 4.67535,2.5185 11.8971,11.622 16.7898,8.034 -2.6661,-3.8265 -8.98815,-12.7005 0.075,-6.384 6.0567,7.3545 4.00755,-6.8025 9.3462,-1.6605 -1.1655,-2.772 -14.25345,-13.5465 -4.45845,-7.236 2.6967,2.9535 12.85155,7.1265 7.42935,0.495 -7.3113,-2.529 2.1612,-6.4125 -6.22005,-8.085 4.8381,-5.0895 -11.85015,-6.1605 -16.245,-5.883 -5.3358,1.14 -10.85625,-1.26 -10.7265,-5.5275 -10.57035,-1.485 -22.19565,-2.862 -25.4613,-14.811 -3.7578,-6.9705 -6.5757,-14.4315 -10.731,-21.207 z m -5.04375,8.8065 c -2.3979,7.038 6.159,12.8385 2.79915,19.8975 3.768,7.1175 -3.6213,13.4385 -6.2172,16.206 6.53295,2.2095 12.7248,-11.691 11.1228,-13.4325 -3.3615,2.424 -4.5675,-13.3035 1.185,-3.888 10.10985,4.41 -8.2197,-11.847 -7.38225,-16.827 l -0.7305,-1.485 z m -85.0998,15.9825 c -9.0501,4.461 -18.931958,6.726 -28.983158,6.612 2.2539,5.412 -8.704947,3.495 -11.143047,9.036 0.396,-2.913 -1.91745,-0.72 -4.02555,2.1375 0.03,0.15 0.045,0.165 0.075,0.225 0.015,-0.33 0.06,-0.15 0.105,0.3 l 0.624,0 0.15,0 c 0.0035,0.001 0.004,0.001 0.008,0.001 0.0078,0.002 0.015,0 0.03,0 3e-4,0 -3e-4,0 0,0 0.015,-0.21 0.6195,0.21 0.63,0 0.516,0 0.9885,0.15 1.497,-0.15 0.276,0.002 0.5685,-0.15 0.8295,0 0.471,0.165 0.798,0.375 1.02,0.63 0.0077,0 0.0077,0 0.015,0.001 0.3255,-1.26 0.921,-2.0745 2.33475,-1.29 0.06,3.5385 -1.275,5.6835 -3.1485,6.9435 0.2685,0.705 0.12,1.155 -1.1595,0.645 -2.9172,1.32 -6.56685,1.035 -8.43705,0.615 -0.6315,2.6805 -7.72965,-1.5825 -1.64295,-4.6785 2.5506,-3.609 14.25135,-11.1735 11.10795,-12.3795 -10.0653,11.3625 6.019347,-11.0985 -5.64465,-5.157 -5.44395,7.275 -11.72145,11.4375 -11.62005,20.6715 -10.45185,5.592 3.5619,8.502 6.32925,11.688 5.59785,-6.72 13.94175,-5.355 17.916147,-14.31 3.76335,-2.5785 12.8556,-8.5215 5.81265,-8.946 1.41,-7.1715 13.725312,0.33 18.598508,-6.606 2.03205,-1.9335 9.3564,-3.234 8.73495,-6.1125 z m -10.56375,8.226 c -3.244346,2.817 -14.174558,5.3865 -10.079408,9.2805 -13.9314,0.39 6.219912,7.9335 6.475512,-0.945 -6.672912,-2.0835 7.093946,-6.1005 3.603896,-8.334 z m 38.8914,2.0595 c 0.408,6.6075 -8.6847,6.3795 0,0 z m -20.6997,1.455 c 0.3765,4.2675 -8.19615,17.7615 -4.72515,7.17 1.314,-2.526 2.43585,-5.346 4.72515,-7.17 z m 52.9545,2.4495 -0.06,0 -0.002,0 0.06,0 z m -0.075,0 -0.045,0 c 0.015,0.001 0.03,-0.001 0.045,0 z m -7.5e-4,0.15 -9e-4,0 9e-4,0 c 0,-0.002 0,0 0,0 z m -2.71785,1.611 c -0.09,0.15 -0.1905,0.15 -0.2865,0.225 0.075,0 0.1515,0 0.225,-0.15 0.015,0 0.03,-0.15 0.06,-0.15 z m 0.03,0.15 -0.03,0 0.03,0 0.001,0 z m -0.007,0.15 c -0.03,0 -0.075,0 -0.105,0.15 1.5e-4,0.001 0.002,0 0.002,0 0.03,0 0.06,0 0.09,-0.15 l 7.5e-4,0 z m -1.263,1.035 c 0.045,0 -0.12,0.15 -0.168,0.15 l -0.007,0 c 0.06,0 0.12,-0.15 0.1785,-0.15 z m 85.47945,2.55 c 5.1732,0 13.2825,4.4595 3.468,2.1405 -3.37125,-0.765 -15.33735,-0.75 -3.9591,-2.121 l 0.4905,0 z m -89.4789,1.425 c -0.045,0 -0.09,0.15 -0.135,0.18 0.045,0 0.09,-0.15 0.15,-0.15 l -0.005,0 z m -96.995105,0.855 c 4.5e-4,0 0.0012,0.15 0.0012,0.15 l 0.015,0 c -1.5e-4,0 7.5e-4,-0.15 7.5e-4,-0.15 l -0.015,0 z m 119.619905,0.855 c -8.96685,-0.15 -12.9468,17.424 -10.03155,18.0255 6.5118,-3.708 10.15905,-15.3165 16.14495,-17.28 -1.401,-0.285 -2.8206,-0.495 -4.254,-0.48 -0.642,-0.18 -1.2615,-0.27 -1.8594,-0.27 z m 61.80825,2.2215 c 0.15,0 0.282,0 0.4275,0.195 0.09,0.15 0.135,0.18 0.1845,0.27 0.015,0 0.03,-0.001 0.045,-0.001 0.24,0 0.4515,0.15 0.669,0.225 0.075,0 0.1545,0.15 0.2205,0.15 0.015,0 -0.105,0 -0.075,-0.001 0.12,0 0.273,0 0.384,0.15 0.075,0 0.135,0.15 0.201,0.195 0.1935,0.15 0.3555,0.15 0.5625,0.24 0.09,0 0.135,0.15 0.1665,0.18 l 0.06,0 c 0.007,0.15 -7.5e-4,0 -0.06,0 -0.12,-0.15 -0.06,0 0.09,0.21 0.12,0.15 0.288,0.18 0.405,0.3 6e-4,0 0.002,0.001 0.002,0.001 l 0.06,0 0.2175,0.27 0.015,0 0.15,0 0.2895,0 c 0.3615,0.15 0.468,0.165 0.72,0.3 0.007,0 -0.015,-0.001 -0.03,-0.001 -0.015,0.15 -0.0125,0 0.213,0.15 0.378,0.15 0.5595,0.3 0.699,0.6 0.0125,0.15 0.03,0.15 0.03,0.15 0.03,0 0.045,0 0.105,0.15 l 0.015,0 c 0.045,0 0.12,0.15 0.105,0.18 l -0.03,0 c 0.001,0 0.0125,0 0.045,0.15 l 0.09,0 c 0.007,0 0.06,0 0.09,0.15 0.207,0.15 0.342,0.18 0.411,0.42 l -0.06,0 c 0.045,0 0.09,0.15 0.12,0.15 l 0.03,0 c 0.03,0 0.06,0 0.09,0.15 0.105,0.15 0.045,0 0.1725,0.15 l 0.075,0 c 0.2595,0 0.6705,0.48 0.7665,0.735 0.015,0 0.03,0.15 0.03,0.15 0.007,0.002 0.015,0 0.03,0 0.423,0.15 0.657,0.33 0.789,0.735 0.03,0.15 0.03,0.195 0.03,0.315 0.135,0.15 0.2595,0.195 0.3555,0.315 0.075,0.15 0.045,0.21 0.045,0.33 0.276,0.225 0.4665,0.585 0.384,0.36 -0.03,0 -0.045,0 -0.06,-0.15 l 0.06,0 0.007,0 c 0.03,0 0.045,0 0.06,0.15 0.015,0 0.03,0 0.045,0.15 l 0.015,0 c 0.441,0 0.435,0 0.8415,0.36 0.075,0.15 0.2025,0.195 0.135,0.27 0.3915,0.42 0.4995,0.93 0.474,1.5375 -0.045,0.9 -0.642,1.2 -1.0335,0.885 -0.2955,0 -0.5325,-0.18 -0.7755,-0.405 -0.06,0 -0.15,-0.15 -0.174,-0.195 l -0.09,0 c -0.12,0 -0.4545,-0.48 -0.504,-0.585 -0.03,0 -0.045,-0.15 -0.06,-0.165 -0.105,0 -0.0125,0 -0.492,-0.3 0.1965,0.15 -0.075,0 -0.24,-0.285 -0.075,-0.15 -0.105,-0.225 -0.12,-0.345 l -0.105,0 c -0.3285,-0.18 -0.4965,-0.315 -0.636,-0.63 l 0.06,0 c -0.2355,-0.225 -0.534,-0.48 -0.7575,-0.75 -0.015,0 -0.135,-0.21 -0.15,-0.21 -0.001,0 0.015,0.003 0.045,0 -0.3945,-0.465 0.2085,0.24 -0.318,-0.345 -0.03,0 -0.03,0 -0.045,-0.15 -0.045,0 -0.105,0 -0.15,-0.15 -0.3285,-0.225 -0.3645,-0.255 -0.4515,-0.435 l -0.105,0 c -0.297,-0.15 -0.477,-0.405 -0.6795,-0.63 -0.03,0 -0.06,-0.15 -0.105,-0.15 -0.135,-0.165 -0.588,0 -0.5175,-0.33 -0.09,-0.15 -0.135,-0.315 -0.1755,-0.48 l -0.03,0 c -0.2625,0 -0.327,0 -0.5235,-0.18 l 9e-4,0 c -0.303,-0.15 -0.6495,-0.195 -0.888,-0.465 -0.09,-0.15 -0.2565,-0.15 -0.291,-0.21 -0.2175,0 -0.477,0 -0.42,-0.15 -0.4245,0 -0.7335,0 -1.0905,-0.225 -0.249,-0.195 -0.2085,-0.15 -0.258,-0.225 l 0.075,0 c -0.1875,-0.15 -0.5115,-0.15 -0.6795,-0.315 l -0.15,0 0.015,0 0.06,0 -0.09,0 c 0.005,-0.005 0.0125,0 0.015,-0.001 l -0.015,0 -0.015,0 -0.105,0 c -0.075,0 -0.15,-0.15 -0.15,-0.15 -0.03,0 -0.045,0 -0.06,-0.15 l -0.045,0 c -9e-4,-0.001 0.005,-0.001 0.007,-0.001 l 0.045,0 c -0.06,0 -0.105,0 -0.15,-0.15 l -0.186,0 c -0.09,0 -0.1575,0 -0.2145,-0.15 l -0.03,0 c -0.005,-0.003 -0.0125,-0.003 -0.015,0 -0.005,-0.003 -0.015,-0.003 -0.015,0 l 0.0125,0 -0.15,0 c -0.1905,-0.15 -0.1725,-0.15 -0.24,-0.225 l 0.002,0 -0.015,0 -0.015,0 c -0.03,0 -0.075,-0.15 -0.105,-0.15 -0.015,0 -0.015,0 -0.03,-0.15 l -6e-4,0 0.007,0 -0.007,0 -0.2985,0 c -0.387,0 -0.6405,-0.18 -0.783,-0.42 -0.6615,-0.345 -0.4515,-1.23 0.636,-1.23 l 0.12,0 c 0.21,-0.001 0.4185,-0.001 0.627,0 0.3435,0.001 0.6885,0 1.032,-0.002 l 0.5715,0 0.4455,0 z m -0.861,2.7015 0.03,0 -0.03,0 -0.015,0 c -0.001,0.003 -0.005,0.003 -0.005,0 l 0.03,0 z m 1.389,-2.2545 c -0.06,0.001 -0.168,0.002 -0.12,0 0.045,0.002 0.09,0.001 0.135,-0.001 l -0.005,0 z m 0.1665,0.18 c 0.03,0 0.045,0.15 0.075,0.15 0.03,0 -0.015,0 -0.075,-0.15 z m -2.83065,1.35 0.03,0 c 0.03,0 0.135,0 0.105,0.001 l -0.135,0 z m -62.74635,0.15 c -0.513,5.277 -8.88255,16.7925 -4.6086,5.094 0.669,-2.262 2.2653,-4.407 4.6086,-5.094 z m 63.84075,0.465 -0.015,0 0.03,0 z m -0.008,0.15 0.03,0 z m -14.11905,0.285 c 8.28075,0.15 16.0503,5.928 19.10085,13.524 -6.3072,-4.9575 -12.58395,-10.0695 -19.9041,-13.5135 l 0.8025,0 z m 20.9013,0.72 c -0.002,-0.001 0.002,0 0.005,0 4.5e-4,0.001 0.002,0 0.005,0 z m -2.39235,0.66 0.007,0 0.0125,0 c -0.008,0 -0.0125,0 -0.015,-0.15 z m 0.075,0.24 c 0.03,0 0.06,0.15 0.12,0 z m -32.67285,0.27 c -14.29065,2.415 15.20925,5.6355 7.6593,1.7475 -2.53995,-0.57 -5.01465,-1.776 -7.6593,-1.7475 z m 34.33815,1.365 0.015,0 0.255,0 -0.2745,0 z m 3.19995,0.285 c 0.06,0 0.12,0.15 0.177,0.15 l -0.045,-0.15 -0.135,0 z m -2.5827,0.225 0.03,0 -0.03,0 c -6e-4,-0.001 -0.002,-0.001 -0.002,-0.001 z m 3.13065,0.51 0.045,0 z m -1.32,1.425 c 0.03,0.3 0.075,0.525 0.1995,0.15 -0.045,0 -0.12,0 -0.1995,-0.15 z m 0.8835,0.915 0.09,0 0.09,0 -0.1845,0 z m 0.747,0.81 0.015,0 0.1875,0 -0.207,0 z"
       id="path4283-1-5"
       inkscape:connector-curvature="0"
       sodipodi:nodetypes="ccccccccccccccccccccccccccccccccccccccccccccccccccccccccccccccccccccccccccccccccccccccccccccccccccccccccccccccccccccccccccccccccccccccccccccccccccccccccccccccccccccccccccccccccccccccccccccccccccccccccccccccccccccccccccccccccccccccccccccccccccccccccccccccccccccccccccccccccccccccccccccccccccccccccccccccccccccccccccccccccccccccccccccccccccccccccccccccccccccccccccccccccccccccccccccccccccccccccccccccccccccccccccccccccccccccccccccccccccccccccccccccccccccccccccccccccccccccccccccccccccccccccccccccccccccccccccccccccccccccccccsccccccccccccccccccccccccccccccccccccccccccccccccccccccccccccccccccccccccccccccccccccccscccccccccccccccccccccccccccsccccccccccccccccccccccccccccccccccccccccccccccccccccccccccccsscccccsccsccccccccccccccccccscsccccccccsccccccccccccccccccccccccccccccccccccccccccccccccccccccccccccccccccccscscccccccccc" />
    <text
       xml:space="preserve"
       style="font-style:normal;font-variant:normal;font-weight:500;font-stretch:normal;font-size:37.5px;line-height:125%;font-family:'Helvetica Neue';-inkscape-font-specification:'Helvetica Neue, Medium';text-align:start;letter-spacing:0px;word-spacing:0px;writing-mode:lr-tb;text-anchor:start;fill:#743f00;fill-opacity:1;stroke:none;stroke-width:1px;stroke-linecap:butt;stroke-linejoin:miter;stroke-opacity:1"
       x="47.140041"
       y="968.23834"
       id="text5950"
       sodipodi:linespacing="125%"><tspan
         sodipodi:role="line"
         x="47.140041"
         y="968.23834"
         id="tspan5954"
         style="font-style:normal;font-variant:normal;font-weight:bold;font-stretch:normal;font-size:60px;line-height:125%;font-family:'Helvetica Neue';-inkscape-font-specification:'Helvetica Neue, Bold';text-align:start;writing-mode:lr-tb;text-anchor:start;fill:#441500;fill-opacity:1">BEMP</tspan></text>
  </g>
</svg>
